<?xml version="1.0" standalone="no"?>
<!DOCTYPE svg PUBLIC "-//W3C//DTD SVG 20010904//EN"
 "http://www.w3.org/TR/2001/REC-SVG-20010904/DTD/svg10.dtd">
<svg version="1.0" xmlns="http://www.w3.org/2000/svg"
 width="1066.000000pt" height="1280.000000pt" viewBox="0 0 1066.000000 1280.000000"
 preserveAspectRatio="xMidYMid meet">
<g transform="translate(0.000000,1280.000000) scale(0.100000,-0.100000)"
fill="#000000" stroke="none">
<path d="M1453 12792 c-34 -5 -43 -24 -64 -129 -32 -157 -257 -1080 -268
-1102 -8 -13 -24 -21 -49 -23 l-37 -3 -3 -51 c-3 -50 -2 -51 29 -58 17 -3 98
-6 180 -6 l149 0 -6 43 c-9 55 -18 66 -66 74 -22 3 -42 11 -44 17 -5 12 40
243 49 252 3 3 67 1 143 -5 111 -8 141 -13 151 -27 16 -22 57 -200 50 -218 -3
-8 -22 -16 -44 -18 l-38 -3 -3 -57 -3 -58 171 0 170 0 0 46 c0 60 -13 82 -55
90 -42 8 -57 32 -75 119 -22 114 -229 940 -256 1023 -27 84 -42 101 -81 94z
m110 -817 l2 -30 -108 -3 c-100 -2 -108 -1 -103 15 28 90 76 283 86 343 6 41
14 86 17 100 5 25 102 -363 106 -425z"/>
<path d="M1415 11136 c-25 -36 -81 -123 -124 -193 -168 -278 -201 -357 -202
-479 -1 -94 22 -133 105 -181 57 -33 150 2 191 71 15 25 29 46 32 46 11 0 -8
-110 -26 -152 -11 -23 -35 -68 -55 -98 -20 -30 -36 -58 -36 -62 0 -17 60 -21
209 -14 85 4 157 9 160 11 2 3 -16 31 -41 62 -25 32 -55 77 -67 101 -23 45
-43 132 -31 132 4 0 19 -18 34 -40 37 -57 66 -72 134 -72 99 0 152 41 171 133
24 109 9 168 -80 324 -69 121 -271 424 -302 453 l-25 24 -47 -66z"/>
<path d="M5339 10933 c-8 -10 -21 -31 -29 -46 -8 -16 -89 -117 -181 -225 -183
-217 -438 -472 -814 -817 -132 -121 -394 -375 -583 -565 -405 -407 -504 -528
-641 -787 -46 -87 -108 -202 -138 -257 -67 -122 -93 -199 -144 -424 -55 -245
-79 -437 -86 -692 -10 -384 37 -601 185 -853 206 -349 519 -574 877 -631 50
-8 125 -20 167 -27 93 -14 150 -9 301 30 331 86 567 248 762 525 61 87 70 96
73 73 7 -60 -136 -539 -218 -727 -44 -102 -155 -293 -239 -410 -74 -104 -267
-314 -395 -430 -52 -47 -118 -111 -147 -143 l-52 -58 40 -41 40 -40 259 65
c443 112 633 137 1054 137 295 0 487 -12 671 -40 179 -27 423 -85 469 -111
l39 -22 48 38 c26 21 50 40 52 42 3 2 -92 101 -210 221 -251 254 -292 301
-412 482 -193 289 -369 729 -394 979 -8 79 -3 77 71 -28 154 -220 345 -359
653 -476 l118 -45 275 7 275 6 176 87 c385 189 583 405 701 764 79 242 107
557 74 826 -69 551 -232 974 -551 1430 -48 69 -119 163 -158 210 -112 135
-423 437 -862 835 -250 227 -648 616 -828 810 -74 79 -156 179 -188 230 -82
128 -84 129 -110 98z m38 -145 c11 -13 43 -58 71 -100 29 -42 60 -83 69 -90
10 -7 31 -32 46 -55 16 -23 88 -96 160 -164 73 -67 213 -201 312 -298 99 -97
284 -271 410 -386 264 -240 670 -639 783 -768 270 -309 540 -820 637 -1206 53
-211 70 -366 69 -636 -1 -270 -9 -331 -71 -520 -115 -352 -351 -622 -648 -739
-38 -16 -74 -32 -79 -37 -6 -5 -18 -9 -28 -9 -9 0 -52 -11 -94 -25 -120 -39
-235 -48 -384 -31 -316 37 -601 191 -786 422 -66 84 -162 174 -184 174 -15 0
-40 -31 -40 -50 0 -40 23 -180 46 -282 57 -252 167 -521 315 -770 111 -187
313 -434 459 -561 114 -100 92 -103 -190 -26 -84 23 -356 53 -625 68 -163 10
-480 1 -503 -13 -4 -3 -73 -10 -152 -16 -245 -18 -374 -41 -643 -111 -43 -11
-83 -19 -90 -16 -6 2 33 46 87 98 112 107 288 304 375 419 62 82 168 268 224
391 95 208 203 587 214 751 6 83 5 87 -21 113 -24 23 -28 25 -46 12 -11 -8
-46 -48 -77 -88 -93 -123 -149 -184 -236 -257 -198 -169 -362 -234 -691 -278
-106 -14 -113 -13 -240 11 -175 34 -293 68 -320 94 -12 12 -26 21 -30 21 -5 0
-47 23 -95 52 -103 62 -291 245 -363 354 -72 107 -132 252 -185 439 -22 80
-26 115 -30 315 -3 138 -1 273 6 345 31 324 140 683 307 1017 94 187 262 430
449 648 123 143 477 502 725 735 336 316 372 351 593 570 216 214 341 349 385
414 27 41 73 91 82 91 4 0 16 -10 27 -22z"/>
<path d="M5244 10628 c-210 -255 -332 -384 -562 -595 -649 -593 -1025 -973
-1218 -1228 -93 -123 -266 -389 -323 -495 -102 -192 -195 -462 -250 -722 -45
-211 -53 -691 -16 -873 53 -255 173 -482 342 -647 134 -130 346 -252 503 -288
228 -52 228 -52 283 -41 28 5 88 12 132 16 127 10 212 33 330 89 191 92 320
196 450 366 73 96 133 159 170 178 27 14 70 -9 91 -50 38 -73 -17 -367 -126
-683 -54 -156 -180 -412 -268 -545 -64 -96 -111 -155 -311 -385 -38 -44 -68
-82 -66 -83 2 -2 34 3 72 12 68 15 372 60 533 78 47 5 236 7 420 5 290 -3 362
-8 534 -31 110 -14 237 -35 283 -46 89 -21 133 -25 133 -12 0 4 -54 66 -121
137 -159 170 -240 273 -316 398 -119 196 -267 518 -317 689 -35 120 -59 294
-54 395 3 76 6 87 28 105 19 16 33 18 65 13 59 -9 74 -22 167 -147 47 -62 102
-130 123 -152 128 -129 299 -228 510 -291 l120 -37 175 5 c193 5 228 12 396
78 205 80 355 189 470 342 125 165 208 351 250 555 24 120 25 140 21 362 -8
459 -85 771 -293 1182 -119 233 -239 406 -451 648 -189 216 -316 343 -713 709
-614 567 -874 829 -1018 1024 -36 48 -68 87 -71 87 -3 0 -52 -55 -107 -122z
m152 -325 c13 -14 32 -54 42 -87 l18 -61 60 -6 c66 -6 88 -16 123 -53 28 -30
18 -51 -29 -61 -58 -13 -114 -59 -148 -122 -32 -62 -41 -103 -21 -103 6 0 33
20 61 44 78 68 93 74 122 47 22 -21 28 -22 60 -11 43 14 65 8 96 -25 32 -34
20 -52 -42 -60 -72 -10 -94 -20 -156 -67 -98 -76 -138 -151 -172 -320 -10 -50
-15 -58 -33 -58 -40 0 -66 28 -83 88 -54 191 -174 310 -346 345 -34 7 -63 18
-65 24 -7 19 65 54 122 60 46 5 59 11 76 34 35 50 54 40 143 -76 19 -25 31
-33 36 -25 9 14 -5 81 -25 119 -22 43 -90 99 -137 112 -24 7 -47 16 -51 20
-16 13 61 78 100 84 78 13 83 15 83 37 0 30 44 102 77 127 37 27 59 26 89 -6z
m-394 -677 c103 -24 203 -108 258 -217 21 -40 18 -49 -16 -49 -15 0 -33 15
-58 49 -156 217 -562 106 -561 -154 1 -34 9 -81 19 -107 10 -25 15 -51 11 -57
-3 -6 -23 -11 -43 -11 -50 0 -80 -9 -86 -26 -13 -34 52 -146 102 -176 39 -24
122 -33 165 -19 37 13 127 100 127 125 0 7 7 16 15 20 32 12 85 -72 85 -132 0
-16 -13 -55 -29 -87 -30 -60 -31 -75 -6 -75 25 0 47 -44 36 -73 -5 -14 -15
-28 -21 -32 -19 -12 -2 -23 69 -44 53 -16 77 -30 101 -58 61 -70 76 -140 39
-187 -18 -22 -19 -31 -10 -54 19 -49 23 -116 12 -195 -20 -141 -91 -237 -176
-237 -81 0 -147 90 -95 132 37 30 75 23 106 -18 l28 -36 24 47 c55 109 15 236
-111 359 -40 39 -99 89 -130 110 l-57 39 -23 -21 c-13 -12 -31 -22 -41 -22
-27 0 -146 125 -204 212 -74 115 -84 149 -89 323 -5 148 -5 152 26 244 38 112
37 146 -1 81 -56 -96 -70 -160 -76 -356 l-5 -180 53 -103 c29 -56 71 -128 94
-159 70 -95 205 -203 415 -333 102 -63 139 -98 126 -119 -11 -18 -30 -11 -106
38 -392 257 -437 293 -521 419 -116 172 -158 412 -108 608 29 112 91 236 140
278 38 32 53 67 28 67 -20 0 -87 -79 -133 -158 -81 -137 -133 -340 -122 -477
15 -197 103 -350 437 -766 195 -243 248 -344 290 -548 60 -297 -27 -688 -207
-926 -116 -153 -227 -238 -406 -310 -161 -65 -390 -84 -543 -45 -102 27 -282
116 -360 179 -128 103 -274 330 -304 471 -19 87 -25 310 -11 381 17 83 71 208
158 360 124 217 153 292 153 384 -1 56 -32 120 -69 140 -28 14 -34 14 -60 0
-37 -19 -44 -8 -32 46 24 106 158 117 216 19 17 -29 20 -52 19 -135 0 -94 -3
-107 -42 -203 -23 -56 -42 -105 -42 -107 0 -39 137 101 266 271 185 244 207
421 68 543 -24 22 -45 31 -69 31 -43 0 -51 13 -23 39 31 30 93 28 140 -4 56
-38 80 -85 87 -172 l6 -76 47 -14 c54 -15 79 -45 80 -93 1 -26 -8 -41 -41 -71
-32 -30 -41 -44 -36 -60 9 -29 -17 -55 -95 -94 -84 -42 -179 -114 -230 -173
-47 -55 -50 -68 -12 -48 38 20 156 36 259 36 105 0 197 -20 267 -58 68 -36
177 -145 209 -207 72 -144 47 -324 -60 -427 -48 -46 -79 -58 -152 -58 -72 0
-156 39 -188 89 -27 41 -31 115 -7 149 18 26 65 52 94 52 17 0 20 -6 20 -51 0
-45 4 -55 35 -86 32 -32 39 -35 77 -30 49 7 86 32 113 78 16 26 20 52 20 114
0 69 -4 89 -32 147 -39 83 -121 171 -154 166 -21 -3 -24 -8 -24 -50 0 -26 -4
-50 -8 -55 -8 -8 -16 -3 -102 54 -58 39 -138 57 -214 48 -65 -8 -210 -49 -252
-70 -47 -25 -37 -43 24 -47 l52 -3 -3 -32 c-3 -29 1 -34 37 -53 57 -29 77 -62
74 -128 -3 -61 -17 -92 -40 -92 -9 0 -37 20 -63 44 -37 35 -58 46 -96 52 -96
14 -178 -27 -241 -120 -49 -71 -57 -113 -57 -286 0 -147 2 -160 33 -257 18
-57 37 -103 43 -103 6 0 7 30 3 85 -6 74 -5 88 10 105 24 27 36 25 70 -10 32
-34 49 -28 60 20 8 34 51 65 113 79 56 12 105 -2 132 -37 21 -26 21 -27 3 -37
-45 -25 -101 -92 -113 -135 -20 -74 -16 -179 8 -226 46 -90 103 -135 221 -173
57 -19 138 -27 415 -44 24 -1 41 3 43 10 5 14 5 14 -78 37 -31 9 -67 24 -80
34 l-23 19 27 46 27 45 -27 17 c-15 10 -37 29 -50 43 -64 69 13 216 126 238
43 9 53 -7 45 -73 -7 -61 2 -80 67 -140 58 -54 77 -62 144 -62 134 -1 221 77
341 306 26 48 55 99 65 112 35 43 17 68 -25 36 -31 -24 -59 -18 -78 15 -15 26
-23 30 -57 30 -74 0 -146 90 -122 153 14 37 26 40 70 17 22 -11 53 -20 68 -20
44 0 100 45 130 103 27 51 28 56 27 222 0 151 -2 176 -21 225 -12 30 -38 96
-57 145 -32 82 -35 88 -44 65 -43 -112 -52 -125 -67 -100 -12 19 -38 10 -77
-26 -38 -34 -43 -36 -87 -29 -77 11 -122 53 -125 117 l-1 33 52 0 c70 1 93 22
93 85 0 87 -34 168 -149 351 -59 96 -126 208 -147 249 l-39 75 -3 172 c-4 197
5 249 67 379 39 82 141 219 187 252 14 9 51 37 82 60 147 112 319 155 474 118z
m974 -16 c43 -12 124 -43 180 -70 82 -40 111 -60 160 -113 66 -70 141 -203
170 -302 24 -81 24 -322 0 -413 -31 -121 -98 -274 -178 -405 -109 -178 -118
-199 -118 -278 0 -90 24 -119 133 -153 30 -9 19 -26 -35 -51 -65 -30 -100 -31
-144 -5 l-33 21 -13 -27 c-30 -61 -66 -54 -99 20 l-17 38 -16 -25 c-27 -41
-85 -191 -96 -247 -13 -70 -13 -215 1 -265 15 -52 63 -122 102 -146 28 -18 44
-20 118 -15 l87 5 5 -47 c3 -25 1 -56 -3 -68 -13 -33 -74 -75 -120 -81 -31 -4
-43 -12 -53 -32 -10 -21 -20 -27 -52 -29 -67 -5 -67 -3 -36 -94 47 -136 68
-176 123 -234 74 -78 134 -108 223 -108 87 0 159 29 211 86 l36 40 -3 86 c-5
103 7 113 67 60 75 -66 94 -158 48 -236 l-27 -45 37 -30 c50 -41 47 -64 -19
-136 -63 -67 -64 -65 45 -76 85 -9 245 11 342 41 67 21 83 31 127 80 60 65 89
146 98 266 7 89 -2 110 -88 209 -31 34 -49 65 -47 76 7 37 100 59 147 33 12
-6 38 -36 57 -66 19 -30 39 -54 44 -54 5 0 22 17 39 37 30 36 31 37 46 18 32
-41 39 -62 44 -129 8 -90 23 -95 59 -19 27 57 27 61 27 253 l0 195 -32 61
c-64 122 -147 197 -231 208 -101 14 -179 -21 -219 -99 l-16 -29 -23 27 c-38
45 -40 71 -8 135 22 43 40 63 73 82 25 14 52 39 61 55 15 26 23 30 53 28 36
-2 100 -31 165 -74 48 -31 41 -3 -12 46 -52 48 -202 133 -299 170 -51 19 -86
25 -145 25 -107 0 -136 -10 -228 -84 -90 -71 -118 -88 -128 -79 -3 3 -6 28 -6
55 0 57 -17 63 -56 21 -104 -112 -124 -338 -38 -433 38 -42 75 -54 127 -39 52
14 87 60 87 115 0 37 3 44 20 44 11 0 34 -13 52 -29 28 -25 32 -35 35 -92 3
-50 0 -71 -15 -95 -24 -38 -82 -66 -147 -72 -62 -5 -100 10 -182 72 -85 65
-114 123 -114 234 0 127 24 194 105 294 98 121 248 188 419 188 72 0 89 -4
183 -45 106 -46 124 -52 124 -36 0 27 -198 175 -315 236 -125 65 -128 68 -108
116 l15 40 -61 57 c-71 67 -77 93 -32 141 20 21 38 31 59 31 38 0 62 23 62 58
1 75 70 156 165 191 110 41 131 21 43 -41 -106 -73 -167 -194 -154 -301 8 -71
62 -179 134 -268 73 -90 225 -237 259 -250 36 -14 47 -1 26 29 -10 15 -30 51
-45 81 -65 126 -11 341 86 341 12 0 28 6 34 12 10 10 15 10 20 1 4 -6 18 -13
32 -14 29 -5 72 -64 68 -94 -3 -17 -12 -21 -70 -25 -46 -3 -75 -11 -95 -26
-26 -19 -28 -27 -31 -97 -4 -103 16 -154 137 -350 109 -177 155 -273 196 -412
53 -177 42 -460 -24 -600 -58 -125 -211 -297 -335 -378 -67 -44 -156 -79 -290
-112 -190 -47 -349 -32 -577 56 -111 43 -188 97 -310 219 -158 157 -234 293
-297 530 -21 80 -25 118 -26 245 -2 330 71 498 424 978 140 190 180 255 220
360 83 213 90 433 19 598 -41 94 -165 246 -185 226 -3 -3 17 -33 43 -68 96
-127 130 -251 120 -434 -7 -119 -23 -176 -86 -310 -78 -163 -208 -318 -365
-434 -73 -54 -173 -104 -193 -97 -13 5 -14 4 -4 -8 11 -12 8 -20 -13 -41 -14
-14 -30 -25 -35 -25 -16 0 -25 48 -12 64 6 7 69 55 141 106 160 115 262 215
345 340 70 104 91 148 130 272 23 70 27 101 27 198 0 139 -19 227 -68 321 -34
64 -101 139 -124 139 -15 0 -13 -5 25 -89 39 -87 71 -212 80 -316 13 -134 -49
-368 -126 -481 -34 -50 -135 -144 -155 -144 -7 0 -21 11 -30 25 -21 32 -35 31
-98 -5 -68 -38 -161 -136 -188 -197 -27 -62 -21 -181 13 -242 28 -50 44 -56
76 -31 44 35 83 20 83 -31 0 -45 -29 -71 -80 -71 -79 -2 -161 56 -196 137 -25
57 -22 199 5 285 11 36 21 73 21 83 0 16 -5 19 -40 21 -26 2 -23 53 4 100 29
50 83 96 139 119 44 19 55 41 34 65 -8 9 -18 27 -21 39 -8 26 25 53 67 53 l28
0 -36 47 c-41 54 -50 80 -41 126 7 38 41 97 56 97 6 0 35 -22 63 -48 78 -73
95 -82 155 -82 90 0 141 32 167 107 17 46 7 57 -59 67 -24 4 -51 13 -61 20
-16 11 -15 17 16 77 57 110 41 218 -42 293 -23 21 -62 47 -88 59 -57 25 -165
34 -216 17 -47 -16 -108 -70 -141 -126 -32 -55 -51 -71 -66 -56 -14 14 12 87
59 160 25 40 45 59 81 75 26 11 52 20 58 19 6 -1 24 5 40 13 43 22 183 20 280
-5z m-490 -326 c67 -18 99 -43 90 -71 -9 -29 -32 -36 -64 -19 -77 40 -217 44
-324 11 -65 -21 -88 -16 -88 20 0 21 8 30 44 46 82 36 238 42 342 13z m-3
-182 c-3 -64 -42 -180 -79 -233 -26 -37 -27 -44 -25 -154 0 -63 6 -199 11
-302 12 -231 13 -533 2 -533 -5 0 -17 9 -27 20 -16 18 -19 54 -26 372 -12 482
-19 555 -58 616 -19 31 -39 85 -55 155 -14 60 -26 111 -26 113 0 3 64 3 143 2
l142 -3 -2 -53z m-189 -1183 c116 -77 239 -270 292 -456 24 -85 26 -106 22
-242 l-3 -150 -39 -40 c-49 -50 -70 -57 -102 -36 l-26 17 21 21 c11 12 30 45
43 72 19 43 22 67 22 165 -1 142 -16 224 -59 317 -41 88 -71 133 -169 246
-101 117 -101 151 -2 86z m227 -9 l24 -20 -30 -25 c-37 -30 -52 -31 -60 -5 -7
21 17 70 34 70 5 0 19 -9 32 -20z m-739 -202 c35 -94 48 -288 27 -390 -19 -91
-57 -147 -81 -122 -3 3 3 38 14 77 18 65 20 89 14 237 -4 91 -9 185 -12 209
-8 58 14 52 38 -11z m1198 -203 c0 -156 -4 -255 -10 -255 -20 0 -40 104 -40
212 0 139 24 298 45 298 3 0 5 -115 5 -255z m-652 217 c2 -13 -10 -43 -27 -70
-50 -78 -98 -193 -111 -262 -21 -115 5 -251 64 -334 37 -52 37 -76 1 -76 -37
0 -82 46 -117 118 -40 84 -49 201 -24 302 19 75 99 245 145 308 35 47 64 53
69 14z m64 -83 c5 -19 13 -401 18 -849 14 -1225 25 -1358 137 -1579 l52 -103
-52 8 c-29 5 -127 9 -219 8 l-166 0 43 49 c68 78 91 130 120 277 38 189 43
326 33 935 -12 789 -14 1268 -5 1283 14 21 31 8 39 -29z m1535 -71 c38 -25 60
-62 43 -73 -4 -3 -36 10 -70 28 -60 30 -69 32 -169 32 -96 0 -111 -3 -164 -28
-47 -23 -63 -38 -87 -80 l-30 -52 0 45 c0 40 5 51 38 82 70 67 107 77 278 75
112 -2 123 -4 161 -29z m-2783 -21 c66 -24 117 -61 138 -101 23 -42 -9 -38
-122 14 l-112 53 -82 -6 c-44 -3 -101 -12 -126 -22 -73 -27 -86 -29 -94 -9 -9
23 15 48 78 80 47 24 58 25 151 21 73 -4 119 -12 169 -30z m-556 -240 c2 -14
-4 -49 -12 -78 -10 -33 -16 -91 -16 -155 0 -108 -8 -128 -40 -99 -33 30 -43
102 -26 181 18 77 43 152 59 172 15 19 32 9 35 -21z m3594 5 c18 -31 34 -111
44 -222 5 -62 4 -78 -9 -89 -27 -22 -37 -3 -37 72 0 40 -9 110 -20 157 -11 47
-20 91 -20 98 0 22 25 13 42 -16z m-813 -96 c7 -8 19 -51 26 -95 16 -91 31
-124 72 -163 111 -106 286 -62 332 84 16 49 33 63 61 48 20 -11 22 -18 18 -90
-3 -74 -5 -81 -37 -114 -19 -20 -51 -41 -70 -48 -46 -16 -194 -16 -247 0 -118
35 -211 204 -190 346 8 48 16 55 35 32z m-1934 -28 c9 -45 -12 -162 -36 -210
-29 -57 -102 -126 -162 -153 -75 -35 -185 -52 -235 -37 -93 28 -182 136 -182
222 0 59 57 131 94 117 12 -5 16 -20 16 -60 0 -60 15 -112 39 -141 51 -59 172
-78 247 -38 76 39 139 141 151 243 9 79 57 119 68 57z m233 -264 c6 -40 -175
-252 -258 -303 -40 -24 -85 -28 -93 -7 -8 21 26 61 91 105 58 39 144 125 196
194 31 41 59 45 64 11z m1489 -79 c69 -100 112 -143 190 -187 72 -41 81 -54
56 -79 -19 -19 -23 -19 -55 -6 -75 31 -209 172 -258 271 -65 128 -22 129 67 1z
m979 -69 c9 -23 -30 -99 -69 -139 -78 -78 -287 -148 -352 -119 -43 20 -24 35
66 54 145 32 225 81 290 175 30 44 55 55 65 29z m-3372 -91 c74 -51 127 -76
187 -89 29 -6 42 -27 32 -52 -5 -13 -15 -15 -47 -11 -80 11 -253 97 -279 138
-12 20 -1 69 16 69 7 0 48 -25 91 -55z"/>
<path d="M4510 8903 c0 -37 49 -121 104 -180 63 -68 159 -143 250 -194 68 -38
186 -152 205 -198 13 -30 41 -43 41 -18 0 16 -63 113 -98 150 -15 16 -74 63
-132 105 -282 204 -284 206 -324 282 -39 73 -46 82 -46 53z"/>
<path d="M6140 8985 c-5 -14 -13 -38 -16 -53 -24 -97 -112 -201 -257 -304
-103 -73 -183 -145 -173 -155 3 -4 50 23 103 59 54 36 115 73 136 83 60 28
173 139 202 199 29 60 47 196 26 196 -6 0 -16 -11 -21 -25z"/>
<path d="M8980 2735 c0 -3 22 -35 49 -70 50 -64 83 -139 94 -207 3 -21 4 -38
2 -38 -2 0 -20 24 -39 53 -41 62 -68 77 -135 77 -56 0 -103 -27 -139 -80 -22
-32 -23 -43 -20 -135 4 -98 5 -102 56 -200 89 -172 316 -515 340 -515 22 0
247 353 330 519 l57 114 0 98 c0 83 -3 102 -21 126 -52 70 -129 91 -214 57
-31 -13 -49 -29 -71 -68 l-31 -51 6 67 c6 77 28 126 86 194 32 36 38 49 28 55
-14 9 -378 13 -378 4z"/>
<path d="M8758 1384 c-11 -11 -10 -78 2 -108 7 -20 17 -26 39 -26 40 0 50 -16
61 -101 11 -92 25 -154 95 -449 31 -129 74 -312 95 -406 58 -259 85 -305 169
-288 38 8 45 27 76 191 59 313 210 966 235 1013 6 11 22 23 35 26 58 14 91
120 46 144 -11 6 -89 10 -181 10 l-162 0 7 -52 c9 -64 16 -74 61 -83 19 -3 38
-13 41 -22 7 -17 -10 -131 -28 -197 l-10 -36 -149 0 -149 0 -11 41 c-19 69
-36 173 -32 192 2 10 13 17 27 17 46 0 55 10 55 59 0 75 0 74 -167 79 -81 2
-151 1 -155 -4z m520 -521 c20 -5 23 -11 18 -32 -40 -189 -104 -442 -109 -434
-8 13 -97 421 -97 445 0 9 6 19 13 21 18 8 148 8 175 0z"/>
</g>
</svg>
